<?xml version="1.0" encoding="UTF-8" standalone="no"?><svg id="main" width="2176.1372800817608" height="1709.9252646460113" xmlns="http://www.w3.org/2000/svg"><g id="frame" transform="translate(1036.0, 573.0) scale(1, -1)"><path d="M -621.7267440197566 ,-1022.6523503910508 C -615.9886016692449,-549.8294207089212 -610.250459318733,-77.00649102679131 -604.5123169682213,395.8164386553385 " id="line16832" style="fill:none;stroke:#000000;stroke-width:2.0;stroke-miterlimit:4;stroke-dasharray:none;stroke-opacity:1" />
<path d="M -857.6348802999939 ,-815.3531792673684 C -206.87684345013042,-936.675565834787 443.88119339973093,-1057.9979524022021 766.8782277951962,-824.8811153852203 1089.8752621906613,-591.7642783682384 1085.1112941317301,-4.208217766859068 738.2944194416149,218.4278895204746 391.4775447514999,441.0639968078082 -297.39223656979914,298.7801507810962 -986.2620178910997,156.49630475438312 " id="line16832" style="fill:none;stroke:#000000;stroke-width:2.0;stroke-miterlimit:4;stroke-dasharray:none;stroke-opacity:1" />
<path d="M 230.80039179356 ,-1085.8714463671745 C 233.92800681887778,-1086.3571008742151 237.05562184419477,-1086.8427553812523 237.3275883681332,-942.2731217265961 237.59955489207164,-797.7034880719398 235.01587291463153,-508.07856625558986 234.06399008083926,-256.91748139654624 233.11210724704705,-5.756396537502662 233.7920235569027,206.94085136423473 230.80039179355794,330.5302103149014 227.80876003021322,454.11956926556803 221.14558019366814,488.601039265164 214.48240035712269,523.082509264759 " id="line16832" style="fill:none;stroke:#000000;stroke-width:2.0;stroke-miterlimit:4;stroke-dasharray:none;stroke-opacity:1" />
</g></svg>